<?xml version="1.0" encoding="UTF-8"?>
<svg id="Layer_1" data-name="Layer 1" xmlns="http://www.w3.org/2000/svg" version="1.1" viewBox="0 0 1999.44 1999.44">
  <defs>
    <style>
      .cls-1 {
        fill: #a800fc;
      }

      .cls-1, .cls-2 {
        stroke-width: 0px;
      }

      .cls-2 {
        fill: #000;
      }
    </style>
  </defs>
  <g>
    <path class="cls-2" d="M390.29,1560.64l6.88-16.14c.51-1.34,1.46-2.01,2.86-2.01h21.49c1.72,0,2.99-1.02,3.82-3.06l19.58-46.12c.64-1.34,1.59-2.01,2.86-2.01h18.81c.95,0,1.43.29,1.43.86,0,.26-.1.64-.29,1.15l-21.1,49.85c-1.66,3.88-3.28,7.1-4.87,9.65-1.59,2.55-3.36,4.54-5.3,5.97-1.94,1.43-4.2,2.43-6.78,3.01-2.58.57-5.68.86-9.31.86h-28.93c-.96,0-1.43-.29-1.43-.86,0-.32.1-.7.29-1.15Z"/>
    <path class="cls-2" d="M451.02,1553.39c0-2.35.57-4.87,1.72-7.54l8.4-19.96c1.21-2.93,2.48-5.38,3.82-7.35s2.85-3.56,4.54-4.78c1.69-1.21,3.61-2.09,5.78-2.62,2.16-.54,4.68-.81,7.54-.81h27.12c3.69,0,6.56.7,8.59,2.1,2.04,1.4,3.06,3.53,3.06,6.4,0,2.04-.57,4.39-1.72,7.07l-8.4,19.96c-1.27,3.05-2.67,5.65-4.2,7.78s-3.28,3.87-5.25,5.2c-1.97,1.34-4.2,2.31-6.68,2.91-2.48.61-5.32.91-8.5.91h-26.07c-3.31,0-5.76-.87-7.35-2.62-1.59-1.75-2.39-3.96-2.39-6.64ZM477.57,1543.93h10.69c1.46,0,2.55-.89,3.25-2.67l4.11-9.55c.25-.57.38-1.11.38-1.62,0-.7-.48-1.05-1.43-1.05h-10.7c-1.47,0-2.55.89-3.25,2.67l-4.11,9.55c-.26.57-.38,1.11-.38,1.62,0,.7.48,1.05,1.43,1.05Z"/>
    <path class="cls-2" d="M512.32,1560.83l13.46-31.8h-1.53c-1.15,0-1.5-.6-1.05-1.81l6.49-15.09c.44-1.21,1.3-1.81,2.58-1.81h21.3c1.15,0,1.49.61,1.05,1.81l-1.15,2.58,8.21-3.53c1.27-.57,2.51-.86,3.72-.86h9.26c2.99,0,5.19.43,6.59,1.29,1.4.86,2.1,2.24,2.1,4.15,0,1.66-.61,3.95-1.81,6.88l-8.31,19.58c-.45,1.21-1.31,1.81-2.58,1.81h-17.38c-1.27,0-1.62-.6-1.05-1.81l4.49-10.51c.32-.76.48-1.3.48-1.62,0-.7-.51-1.05-1.53-1.05h-7.73l-13.46,31.8c-.45,1.21-1.31,1.81-2.58,1.81h-18.53c-1.15,0-1.5-.6-1.05-1.81Z"/>
    <path class="cls-2" d="M574.87,1554.91c0-2.23.6-4.74,1.81-7.54l9.17-21.68c1.27-2.99,2.56-5.46,3.87-7.4,1.3-1.94,2.78-3.52,4.44-4.73,1.65-1.21,3.55-2.05,5.68-2.53,2.13-.48,4.66-.72,7.59-.72h11.46c.64,0,1.18.06,1.62.19.44.13.92.32,1.43.57l5.73,3.34,10.22-23.97c.44-1.21,1.3-1.81,2.58-1.81h18.24c1.15,0,1.5.61,1.05,1.81l-22.73,53.48h1.62c1.27,0,1.62.61,1.05,1.82l-6.4,15.09c-.45,1.21-1.31,1.81-2.58,1.81h-10.03c-1.21,0-2.2-.29-2.96-.86l-6.88-5.25-11.27,5.25c-1.34.57-2.58.86-3.72.86h-10.7c-6.88,0-10.31-2.58-10.31-7.73ZM600.94,1542.88c0,.7.44,1.05,1.34,1.05h12.89l6.3-14.9h-12.89c-1.4,0-2.45.89-3.15,2.67l-4.11,9.55c-.26.57-.38,1.11-.38,1.62Z"/>
    <path class="cls-2" d="M643.72,1545.84l8.5-20.15c1.27-2.93,2.59-5.38,3.96-7.35,1.37-1.97,2.9-3.55,4.58-4.73,1.69-1.18,3.6-2.02,5.73-2.53,2.13-.51,4.57-.76,7.31-.76h11.46c1.27,0,2.29.25,3.06.76l5.73,3.34,1.05-2.29c.44-1.21,1.3-1.81,2.58-1.81h18.24c1.15,0,1.49.61,1.05,1.81l-13.56,31.8h1.62c1.27,0,1.62.61,1.05,1.82l-6.4,15.09c-.45,1.21-1.31,1.81-2.58,1.81h-10.03c-1.21,0-2.2-.29-2.96-.86l-6.88-5.25-11.27,5.25c-.7.32-1.34.54-1.91.67s-1.18.19-1.81.19h-10.7c-3.57,0-6.18-.62-7.83-1.86-1.66-1.24-2.48-3.07-2.48-5.49s.83-5.57,2.48-9.45ZM667.31,1542.88c0,.7.44,1.05,1.34,1.05h12.89l6.3-14.9h-12.89c-1.4,0-2.45.89-3.15,2.67l-4.11,9.55c-.26.57-.38,1.11-.38,1.62Z"/>
    <path class="cls-2" d="M705.89,1560.83l13.46-31.8h-2.1c-1.15,0-1.5-.6-1.05-1.81l6.49-15.09c.44-1.21,1.3-1.81,2.58-1.81h21.68c1.15,0,1.49.61,1.05,1.81l-1.15,2.58,12.51-3.82c1.34-.38,2.61-.57,3.82-.57h4.2c4.77,0,8.24.7,10.41,2.1,2.16,1.4,3.25,3.63,3.25,6.68,0,2.8-.99,6.53-2.96,11.17l-12.89,30.37c-.57,1.34-1.53,2.01-2.87,2.01h-18.05c-1.34,0-1.72-.67-1.15-2.01l12.32-28.93c.25-.57.38-1.11.38-1.62,0-.7-.48-1.05-1.43-1.05h-12.99l-13.46,31.8c-.45,1.21-1.31,1.81-2.58,1.81h-18.43c-1.15,0-1.5-.6-1.05-1.81Z"/>
    <path class="cls-2" d="M808.45,1560.64l28.55-67.32c.64-1.34,1.59-2.01,2.86-2.01h49.37c8.34,0,12.51,3.15,12.51,9.46,0,2.93-.83,6.27-2.48,10.03l-13.56,31.99c-1.66,3.88-3.31,7.11-4.97,9.69-1.66,2.58-3.5,4.62-5.54,6.11-2.04,1.5-4.39,2.55-7.07,3.15-2.67.61-5.89.91-9.64.91h-48.89c-1.27,0-1.66-.67-1.15-2.01ZM858.77,1542.5c1.72,0,2.99-1.02,3.82-3.06l10.7-25.11c.32-.76.48-1.34.48-1.72,0-.89-.61-1.34-1.81-1.34h-18.72l-13.18,31.23h18.72Z"/>
    <path class="cls-2" d="M886.08,1560.83l13.46-31.8h-2.2c-1.15,0-1.5-.6-1.05-1.81l6.49-15.09c.44-1.21,1.3-1.81,2.58-1.81h22.25c1.15,0,1.5.61,1.05,1.81l-20.72,48.7c-.45,1.21-1.31,1.81-2.58,1.81h-18.24c-1.15,0-1.5-.6-1.05-1.81ZM910.53,1503.16l5.44-12.7c.44-1.21,1.3-1.81,2.58-1.81h18.24c1.15,0,1.49.61,1.05,1.81l-5.44,12.7c-.45,1.21-1.31,1.81-2.58,1.81h-18.24c-1.15,0-1.5-.6-1.05-1.81Z"/>
    <path class="cls-2" d="M916.07,1560.83l6.4-14.99c.44-1.21,1.3-1.82,2.58-1.82h29.41c.83,0,1.46-.51,1.91-1.53.44-1.08.25-1.62-.57-1.62h-20.34c-5.6,0-8.4-2.07-8.4-6.21,0-1.72.54-3.92,1.62-6.59l2.2-5.25c1.08-2.61,2.13-4.73,3.15-6.35,1.02-1.62,2.18-2.9,3.49-3.82,1.3-.92,2.83-1.54,4.58-1.86,1.75-.32,3.9-.48,6.45-.48h39.63c1.15,0,1.5.61,1.05,1.81l-6.4,15.09c-.57,1.21-1.47,1.81-2.67,1.81h-26.83c-.57,0-1.07.3-1.48.91-.41.61-.62,1.16-.62,1.67,0,.38.25.57.76.57h19.86c6.05,0,9.07,2.07,9.07,6.21,0,1.91-.57,4.2-1.72,6.87l-2.39,5.54c-.96,2.29-1.96,4.2-3.01,5.73s-2.28,2.74-3.68,3.63c-1.4.89-3.01,1.53-4.82,1.91-1.81.38-3.96.57-6.45.57h-41.73c-1.15,0-1.5-.6-1.05-1.81Z"/>
    <path class="cls-2" d="M983.49,1555.39c0-1.46.27-3.1.81-4.92.54-1.82,1.26-3.84,2.15-6.07l6.49-15.37h-2.96c-1.15,0-1.5-.6-1.05-1.81l6.49-15.09c.44-1.21,1.3-1.81,2.58-1.81h2.96l7.26-17.19c.57-1.21,1.43-1.82,2.58-1.82h18.72c1.27,0,1.62.61,1.05,1.82l-7.26,17.19h10.79c1.27,0,1.62.61,1.05,1.81l-6.49,15.09c-.57,1.21-1.43,1.81-2.58,1.81h-10.79l-5.16,12.22c-.32.76-.48,1.34-.48,1.72,0,.64.48.95,1.43.95h15.57c1.27,0,1.62.61,1.05,1.82l-6.4,15.09c-.45,1.21-1.31,1.81-2.58,1.81h-24.54c-3.88,0-6.64-.62-8.26-1.86-1.62-1.24-2.44-3.04-2.44-5.4Z"/>
    <path class="cls-2" d="M1027.51,1560.83l13.46-31.8h-1.53c-1.15,0-1.5-.6-1.05-1.81l6.49-15.09c.44-1.21,1.3-1.81,2.58-1.81h21.29c1.15,0,1.5.61,1.05,1.81l-1.15,2.58,8.21-3.53c1.27-.57,2.51-.86,3.72-.86h9.26c2.99,0,5.19.43,6.59,1.29,1.4.86,2.1,2.24,2.1,4.15,0,1.66-.61,3.95-1.82,6.88l-8.31,19.58c-.45,1.21-1.31,1.81-2.58,1.81h-17.38c-1.27,0-1.62-.6-1.05-1.81l4.49-10.51c.32-.76.48-1.3.48-1.62,0-.7-.51-1.05-1.53-1.05h-7.74l-13.46,31.8c-.45,1.21-1.31,1.81-2.58,1.81h-18.53c-1.15,0-1.5-.6-1.05-1.81Z"/>
    <path class="cls-2" d="M1088.34,1560.83l13.46-31.8h-2.2c-1.15,0-1.5-.6-1.05-1.81l6.49-15.09c.44-1.21,1.3-1.81,2.58-1.81h22.25c1.15,0,1.49.61,1.05,1.81l-20.72,48.7c-.45,1.21-1.31,1.81-2.58,1.81h-18.24c-1.15,0-1.5-.6-1.05-1.81ZM1112.78,1503.16l5.44-12.7c.44-1.21,1.3-1.81,2.58-1.81h18.24c1.15,0,1.5.61,1.05,1.81l-5.44,12.7c-.45,1.21-1.31,1.81-2.58,1.81h-18.24c-1.15,0-1.5-.6-1.05-1.81Z"/>
    <path class="cls-2" d="M1114.98,1560.83l6.4-15.09c.57-1.21,1.43-1.82,2.58-1.82h1.53l22.73-53.48c.44-1.21,1.3-1.81,2.58-1.81h18.24c1.15,0,1.5.61,1.05,1.81l-10.22,23.97,8.69-3.34c1.4-.51,2.67-.76,3.82-.76h11.36c6.88,0,10.31,2.58,10.31,7.73,0,2.23-.61,4.77-1.81,7.64l-9.17,21.68c-1.27,2.93-2.56,5.38-3.87,7.35-1.31,1.98-2.79,3.55-4.44,4.73-1.66,1.18-3.55,2.01-5.68,2.48-2.13.48-4.66.72-7.59.72h-10.79c-.64,0-1.18-.08-1.62-.24-.45-.16-.89-.4-1.34-.72l-6.59-5.16-1.72,4.11c-.51,1.34-1.47,2.01-2.86,2.01h-20.53c-1.15,0-1.5-.6-1.05-1.81ZM1147.35,1543.93h12.8c1.53,0,2.64-.89,3.34-2.67l4.11-9.55c.25-.57.38-1.08.38-1.53,0-.77-.51-1.15-1.53-1.15h-12.8l-6.3,14.9Z"/>
    <path class="cls-2" d="M1188.22,1555.2c0-2.48.76-5.54,2.29-9.17l14.42-33.9c.44-1.21,1.3-1.81,2.58-1.81h18.24c1.15,0,1.5.61,1.05,1.81l-12.41,29.13c-.26.57-.38,1.11-.38,1.62,0,.7.48,1.05,1.43,1.05h13.08l13.56-31.8c.44-1.21,1.3-1.81,2.58-1.81h18.24c1.15,0,1.5.61,1.05,1.81l-13.56,31.8h2.48c1.27,0,1.62.61,1.05,1.82l-6.4,15.09c-.45,1.21-1.31,1.81-2.58,1.81h-10.79c-1.21,0-2.2-.29-2.96-.86l-6.97-5.35-11.55,5.35c-1.34.57-2.58.86-3.72.86h-11.55c-6.11,0-9.17-2.48-9.17-7.45Z"/>
    <path class="cls-2" d="M1257.74,1555.39c0-1.46.27-3.1.81-4.92.54-1.82,1.26-3.84,2.15-6.07l6.49-15.37h-2.96c-1.15,0-1.5-.6-1.05-1.81l6.49-15.09c.44-1.21,1.3-1.81,2.58-1.81h2.96l7.26-17.19c.57-1.21,1.43-1.82,2.58-1.82h18.72c1.27,0,1.62.61,1.05,1.82l-7.26,17.19h10.79c1.27,0,1.62.61,1.05,1.81l-6.49,15.09c-.57,1.21-1.43,1.81-2.58,1.81h-10.79l-5.16,12.22c-.32.76-.48,1.34-.48,1.72,0,.64.48.95,1.43.95h15.57c1.27,0,1.62.61,1.05,1.82l-6.4,15.09c-.45,1.21-1.31,1.81-2.58,1.81h-24.54c-3.88,0-6.64-.62-8.26-1.86-1.62-1.24-2.43-3.04-2.43-5.4Z"/>
    <path class="cls-2" d="M1303.77,1553.39c0-2.35.57-4.87,1.72-7.54l8.4-19.96c1.21-2.93,2.48-5.38,3.82-7.35,1.34-1.97,2.85-3.56,4.54-4.78,1.69-1.21,3.61-2.09,5.78-2.62,2.16-.54,4.68-.81,7.54-.81h27.12c3.69,0,6.56.7,8.59,2.1,2.04,1.4,3.06,3.53,3.06,6.4,0,2.04-.57,4.39-1.72,7.07l-8.4,19.96c-1.27,3.05-2.67,5.65-4.2,7.78s-3.28,3.87-5.25,5.2c-1.97,1.34-4.2,2.31-6.68,2.91-2.48.61-5.32.91-8.5.91h-26.07c-3.31,0-5.76-.87-7.35-2.62-1.59-1.75-2.39-3.96-2.39-6.64ZM1330.32,1543.93h10.7c1.46,0,2.54-.89,3.25-2.67l4.11-9.55c.25-.57.38-1.11.38-1.62,0-.7-.48-1.05-1.43-1.05h-10.69c-1.47,0-2.55.89-3.25,2.67l-4.11,9.55c-.25.57-.38,1.11-.38,1.62,0,.7.48,1.05,1.43,1.05Z"/>
    <path class="cls-2" d="M1365.08,1560.83l13.46-31.8h-1.53c-1.15,0-1.5-.6-1.05-1.81l6.49-15.09c.44-1.21,1.3-1.81,2.58-1.81h21.29c1.15,0,1.5.61,1.05,1.81l-1.15,2.58,8.21-3.53c1.27-.57,2.51-.86,3.72-.86h9.26c2.99,0,5.19.43,6.59,1.29,1.4.86,2.1,2.24,2.1,4.15,0,1.66-.61,3.95-1.82,6.88l-8.31,19.58c-.45,1.21-1.31,1.81-2.58,1.81h-17.38c-1.27,0-1.62-.6-1.05-1.81l4.49-10.51c.32-.76.48-1.3.48-1.62,0-.7-.51-1.05-1.53-1.05h-7.74l-13.46,31.8c-.45,1.21-1.31,1.81-2.58,1.81h-18.53c-1.15,0-1.5-.6-1.05-1.81Z"/>
    <path class="cls-2" d="M1424.28,1560.83l6.4-14.99c.44-1.21,1.3-1.82,2.58-1.82h29.41c.83,0,1.46-.51,1.91-1.53.44-1.08.25-1.62-.57-1.62h-20.34c-5.6,0-8.4-2.07-8.4-6.21,0-1.72.54-3.92,1.62-6.59l2.2-5.25c1.08-2.61,2.13-4.73,3.15-6.35,1.02-1.62,2.18-2.9,3.49-3.82,1.3-.92,2.83-1.54,4.58-1.86,1.75-.32,3.9-.48,6.45-.48h39.63c1.15,0,1.5.61,1.05,1.81l-6.4,15.09c-.57,1.21-1.47,1.81-2.67,1.81h-26.83c-.57,0-1.07.3-1.48.91-.41.61-.62,1.16-.62,1.67,0,.38.25.57.76.57h19.86c6.05,0,9.07,2.07,9.07,6.21,0,1.91-.57,4.2-1.72,6.87l-2.39,5.54c-.96,2.29-1.96,4.2-3.01,5.73s-2.28,2.74-3.68,3.63c-1.4.89-3.01,1.53-4.82,1.91-1.81.38-3.96.57-6.45.57h-41.73c-1.15,0-1.5-.6-1.05-1.81Z"/>
    <path class="cls-2" d="M1523.12,1560.64l28.55-67.32c.64-1.34,1.59-2.01,2.86-2.01h19.86c.95,0,1.43.29,1.43.86,0,.26-.09.64-.29,1.15l-28.55,67.32c-.51,1.34-1.47,2.01-2.86,2.01h-19.86c-1.27,0-1.66-.67-1.15-2.01Z"/>
    <path class="cls-2" d="M1555.59,1560.83l13.46-31.8h-2.1c-1.15,0-1.5-.6-1.05-1.81l6.49-15.09c.44-1.21,1.3-1.81,2.58-1.81h21.68c1.15,0,1.5.61,1.05,1.81l-1.15,2.58,12.51-3.82c1.34-.38,2.61-.57,3.82-.57h4.2c4.77,0,8.24.7,10.41,2.1,2.16,1.4,3.25,3.63,3.25,6.68,0,2.8-.99,6.53-2.96,11.17l-12.89,30.37c-.57,1.34-1.53,2.01-2.86,2.01h-18.05c-1.34,0-1.72-.67-1.15-2.01l12.32-28.93c.25-.57.38-1.11.38-1.62,0-.7-.48-1.05-1.43-1.05h-12.99l-13.46,31.8c-.45,1.21-1.31,1.81-2.58,1.81h-18.43c-1.15,0-1.5-.6-1.05-1.81Z"/>
    <path class="cls-2" d="M1627.4,1547.27l8.98-21.1c1.34-3.05,2.69-5.6,4.06-7.64,1.37-2.04,2.94-3.66,4.73-4.87,1.78-1.21,3.79-2.07,6.02-2.58,2.23-.51,4.87-.76,7.93-.76h31.51c1.15,0,1.5.61,1.05,1.81l-6.4,15.09c-.45,1.21-1.31,1.81-2.58,1.81h-23.11c-1.4,0-2.45.89-3.15,2.67l-4.11,9.55c-.32.76-.48,1.34-.48,1.72,0,.64.48.95,1.43.95h23.11c1.27,0,1.62.61,1.05,1.82l-6.4,15.09c-.45,1.21-1.31,1.81-2.58,1.81h-32.09c-3.5,0-6.16-.7-7.97-2.1-1.82-1.4-2.72-3.44-2.72-6.11,0-2.1.57-4.49,1.72-7.16Z"/>
    <path class="cls-2" d="M1681.64,1560.64l6.97-16.52c.64-1.34,1.59-2.01,2.86-2.01h18.14c.96,0,1.43.29,1.43.86,0,.25-.09.64-.29,1.15l-6.97,16.52c-.51,1.34-1.46,2.01-2.86,2.01h-18.14c-1.27,0-1.66-.67-1.15-2.01Z"/>
  </g>
  <path class="cls-2" d="M452.96,1404.82l55.7-130.75c4.12-10.83,11.86-16.25,23.21-16.25h174.08c13.93,0,24.24-8.24,30.95-24.76l158.6-373.68c5.15-10.83,12.89-16.25,23.21-16.25h152.41c7.74,0,11.61,2.32,11.61,6.96,0,2.07-.77,5.16-2.32,9.28l-170.98,403.86c-13.42,31.47-26.57,57.52-39.46,78.14-12.9,20.64-27.21,36.75-42.94,48.35-15.74,11.61-34.04,19.73-54.93,24.37-20.89,4.64-46.03,6.96-75.43,6.96h-234.42c-7.74,0-11.6-2.32-11.6-6.96,0-2.57.77-5.67,2.32-9.28Z"/>
  <path class="cls-2" d="M911.74,1404.82l231.33-545.44c5.15-10.83,12.89-16.25,23.21-16.25h399.99c67.56,0,101.35,25.53,101.35,76.59,0,23.73-6.71,50.81-20.11,81.24l-109.86,259.18c-13.42,31.47-26.83,57.64-40.23,78.53-13.42,20.89-28.37,37.4-44.87,49.51-16.51,12.13-35.59,20.64-57.25,25.53-21.66,4.91-47.72,7.35-78.14,7.35h-396.12c-10.32,0-13.42-5.42-9.28-16.25ZM1319.47,1257.83c13.93,0,24.24-8.24,30.95-24.76l86.65-203.48c2.57-6.19,3.87-10.83,3.87-13.93,0-7.22-4.91-10.83-14.7-10.83h-151.64l-106.77,252.99h151.64Z"/>
  <path class="cls-2" d="M1539.97,1406.37l109.09-257.63h-17.79c-9.28,0-12.13-4.9-8.51-14.7l52.61-122.24c3.6-9.79,10.56-14.7,20.89-14.7h180.27c9.28,0,12.11,4.91,8.51,14.7l-167.89,394.57c-3.61,9.8-10.58,14.7-20.89,14.7h-147.77c-9.28,0-12.13-4.9-8.51-14.7Z"/>
  <path class="cls-1" d="M1734.92,927.73l52.05-121.45c4.72-12.82,13.83-19.24,27.35-19.24h137.46c20.65,0,22.51,16.97,17.79,29.79l-52.34,124.18c-4.73,12.84-13.85,19.25-27.35,19.25h-128.25c-12.15,0-37.27-4.84-26.71-32.52Z"/>
  <path class="cls-2" d="M763.11,619.09c-12.93-71.5-26.37-72.01-40.06-72.01s-35.5,15.97-58.06,34.23c-22.56,18.25-84.43,72.26-107.75,94.57,0,0,4.06-53.5,7.86-94.06,3.8-40.57-1.01-66.93-23.33-99.13-22.31-32.2-61.61-45.89-95.84-45.89-60.75,0-98.29,45.41-110.82,80.02-12.53,34.61-44.46,118.46-55.2,156.06,0,0-69.34-44.74-125.25-82.53-55.91-37.8-68.12-50-81.11-50-46.46,0-45.83,252.13-45.83,279.31s4.12,36.52,12.63,36.52,15.93-11.26,42.28-67.55c26.36-56.29,32.13-70.57,37.89-70.57s2.2,26.08,2.2,49.7,3.84,35.42,18.67,35.42,57.43-13.32,85.92-13.32,36.04,22.21,36.04,30.17c0,36.04-29.75,89.68-53.64,145.84-23.89,56.16-41.82,98.46-41.82,139.04s26.4,46.19,50.15,46.19,22.77-22.44,22.77-37.61,0-25.41,3.96-16.5c3.96,8.91,10.45,45.48,58.77,127.85,48.32,82.37,125.17,116.43,161.52,134.83,36.35,18.41,81.45,26.69,29.91-11.5-56.6-38.66-107.68-147.26-115.51-189.14-7.82-41.88-2.76-47.86.46-34.51,25.31,99.86,93.2,163.07,118.43,179.9,25.24,16.83,51.98-19.83,34.25-39.66-17.73-19.83-47.77-86.53-47.77-150.53,0-25.24,3.31-32.75,5.71-27.34,2.4,5.41,18.11,56.87,42.97,103.06,3-20.13,31.25-35.46,60.09-42.97,28.84-7.51,60.09-11.12,60.09-38.16s-40.56-88.04-60.09-120.19c-19.53-32.15-47.17-91.04-47.17-114.18,0-57.39,51.68-65.8,79.62-66.7,27.94-.9,48.98-1.5,58.89-17.43,9.92-15.92,13.22-67.61,13.82-86.83.6-19.23,5.41-8.41,18.63,33.65,13.22,42.07,25.67,73.89,35.31,89.86,9.63,15.97,15.47-.25,19.27-49.95,3.8-49.69,4.06-86.46-8.87-157.95ZM443.37,612.32c-6.03,4.57-18.95,12.69-34.51,12.69-29.02,0-47.41-19.73-47.63-63.73-.01-2.44,2.84-3.78,4.71-2.21,31.41,26.35,65.3,43.02,76.92,48.36,1.97.91,2.25,3.58.52,4.89ZM485.22,625.01c-15.56,0-28.48-8.12-34.51-12.69-1.73-1.31-1.46-3.98.52-4.89,11.62-5.34,45.5-22.02,76.92-48.36,1.87-1.57,4.72-.23,4.71,2.21-.22,44-18.62,63.73-47.63,63.73Z"/>
</svg>